<svg xmlns="http://www.w3.org/2000/svg" width="24" height="24" viewBox="0 0 24 24">
  <g fill="none" stroke="currentColor" stroke-width="1.9" stroke-linecap="round" stroke-linejoin="round">
    <path d="M12 3.2c2.6 0 4.8 2.1 4.8 4.8 0 1.5-.7 2.9-1.8 3.8l-1.6 1.2" />
    <path d="M20.8 12c0 2.6-2.1 4.8-4.8 4.8-1.5 0-2.9-.7-3.8-1.8l-1.2-1.6" />
    <path d="M12 20.8c-2.6 0-4.8-2.1-4.8-4.8 0-1.5.7-2.9 1.8-3.8l1.6-1.2" />
    <path d="M3.2 12c0-2.6 2.1-4.8 4.8-4.8 1.5 0 2.9.7 3.8 1.8l1.2 1.6" />
  </g>
</svg>
